<svg width="80" height="80" viewBox="0 0 80 80" fill="none" xmlns="http://www.w3.org/2000/svg">
<g id="?">
<rect id="Rectangle 544457" width="80" height="80" rx="40" fill="#E5E5E5"/>
<path id="?_2" d="M39.9311 51.0917C39.257 51.0917 38.6841 50.8726 38.2122 50.4344C37.7741 49.9963 37.555 49.4233 37.555 48.7156C37.555 47.4011 37.892 45.9687 38.5661 44.4183C39.2402 42.8343 40.2344 41.4524 41.5489 40.2728C42.5263 39.4302 43.4363 38.5876 44.2789 37.745C45.1552 36.9024 45.8461 35.9587 46.3517 34.9139C46.8909 33.8354 47.1606 32.5209 47.1606 30.9706C47.1606 29.7909 46.8741 28.6956 46.3011 27.6844C45.7619 26.6733 44.9867 25.8644 43.9756 25.2578C42.9644 24.6511 41.7343 24.3478 40.285 24.3478C38.6335 24.3478 37.2348 24.668 36.0889 25.3083C34.9767 25.9487 34.1341 26.8419 33.5611 27.9878C32.9881 29.1 32.7017 30.4144 32.7017 31.9311C32.7017 32.6052 32.4826 33.1613 32.0444 33.5994C31.6063 34.0376 31.0502 34.2567 30.3761 34.2567C29.702 34.2567 29.1291 34.0376 28.6572 33.5994C28.2191 33.1613 28 32.6052 28 31.9311C28 29.5719 28.5056 27.5159 29.5167 25.7633C30.5615 23.977 31.9939 22.5783 33.8139 21.5672C35.6676 20.5224 37.8246 20 40.285 20C42.5094 20 44.4811 20.4719 46.2 21.4156C47.9189 22.3593 49.267 23.6569 50.2444 25.3083C51.2556 26.9598 51.7611 28.8641 51.7611 31.0211C51.7611 32.9085 51.4409 34.5432 50.8006 35.925C50.1939 37.2732 49.3513 38.5033 48.2728 39.6156C47.228 40.6941 46.0315 41.7894 44.6833 42.9017C43.7396 43.7106 43.0993 44.688 42.7622 45.8339C42.4252 46.9798 42.2567 47.9404 42.2567 48.7156C42.2567 49.4233 42.0376 49.9963 41.5994 50.4344C41.1613 50.8726 40.6052 51.0917 39.9311 51.0917ZM39.9311 60.2928C39.0211 60.2928 38.2459 59.9726 37.6056 59.3322C36.9652 58.6919 36.645 57.9167 36.645 57.0067C36.645 56.0967 36.9652 55.3215 37.6056 54.6811C38.2459 54.007 39.0211 53.67 39.9311 53.67C40.8411 53.67 41.6163 54.007 42.2567 54.6811C42.897 55.3215 43.2172 56.0967 43.2172 57.0067C43.2172 57.9167 42.897 58.6919 42.2567 59.3322C41.6163 59.9726 40.8411 60.2928 39.9311 60.2928Z" fill="black"/>
</g>
</svg>
