<svg width="120" height="80" viewBox="0 0 120 80" fill="none" xmlns="http://www.w3.org/2000/svg">
  <path d="M16.7404 58.007C17.5702 58.2148 18.4943 58.3188 19.5125 58.3188H19.5076C20.94 58.3188 22.2586 58.1207 23.4636 57.726C24.6686 57.3525 25.7177 56.802 26.6109 56.0745C27.5041 55.3485 28.1894 54.4862 28.6668 53.4891C29.1654 52.492 29.4138 51.3812 29.4138 50.1551C29.4138 49.3869 29.3002 48.6594 29.0712 47.9741C28.8633 47.2888 28.5304 46.6457 28.0741 46.0432C27.6388 45.4407 27.0672 44.8707 26.3608 44.3299C25.6544 43.7696 24.8131 43.25 23.8371 42.7725C22.9651 42.3357 22.2375 41.9102 21.6561 41.4945C21.0748 41.0576 20.6071 40.6224 20.2547 40.1855C19.9234 39.7503 19.6846 39.2729 19.5385 38.7532C19.3939 38.2335 19.3209 37.6635 19.3209 37.0399C19.3209 36.2929 19.467 35.6482 19.7577 35.109C20.0695 34.5487 20.495 34.0908 21.0358 33.7384C21.5749 33.3844 22.2197 33.1148 22.9667 32.928C23.7364 32.7413 24.5241 32.6471 25.4595 32.6471C26.3949 32.6471 27.2247 32.751 27.9523 32.9589C28.6782 33.1667 29.3229 33.4363 29.8832 33.7692C30.4451 34.081 30.942 34.4237 31.3788 34.7972C31.5656 34.9629 31.7832 35.0262 32.0333 34.984C32.3029 34.9434 32.5513 34.8086 32.7803 34.5796C33.0515 34.3311 33.2058 34.0924 33.248 33.8634C33.3114 33.615 33.2285 33.386 32.9996 33.1781C32.4815 32.6373 31.8368 32.129 31.0687 31.6516C30.3005 31.153 29.4382 30.7584 28.4833 30.4677C27.5479 30.1559 26.541 30 25.4611 30C24.0694 30 22.814 30.177 21.6919 30.5294C20.5908 30.8834 19.6457 31.382 18.8564 32.0251C18.0672 32.6487 17.4647 33.386 17.0489 34.2369C16.6332 35.0879 16.4253 36.0217 16.4253 37.0399C16.4253 37.8698 16.5195 38.6281 16.7063 39.3135C16.9141 39.9988 17.1951 40.6224 17.5475 41.1827C17.8999 41.7234 18.3156 42.222 18.7931 42.6783C19.2916 43.1363 19.8324 43.5715 20.4138 43.9872C21.0163 44.3819 21.6496 44.757 22.3138 45.1094C23.0203 45.4829 23.6325 45.8467 24.1522 46.1991C24.6718 46.5531 25.1087 46.9266 25.4611 47.3213C25.8151 47.7159 26.075 48.1527 26.2406 48.6302C26.4274 49.0865 26.5216 49.5964 26.5216 50.1567C26.5216 51.1132 26.3445 51.9431 25.9921 52.6495C25.6381 53.3348 25.1396 53.9065 24.4965 54.3628C23.8729 54.7996 23.1356 55.1309 22.2846 55.3599C21.4337 55.5678 20.5291 55.6717 19.5125 55.6717C18.4959 55.6717 17.5719 55.558 16.7404 55.3291C15.93 55.079 15.2139 54.7574 14.5902 54.3628C13.9666 53.9682 13.4259 53.5411 12.9695 53.0847C12.7617 52.8574 12.544 52.7843 12.3151 52.8671C12.1088 52.9288 11.8587 53.0734 11.568 53.3023C11.3602 53.4891 11.1945 53.697 11.0695 53.9259C10.9461 54.1338 10.9867 54.3628 11.1945 54.6113C11.6314 55.1098 12.1186 55.5873 12.6593 56.0436C13.2001 56.4804 13.8026 56.8751 14.4668 57.2275C15.1521 57.5604 15.9089 57.8202 16.7404 58.007Z" fill="#4AA1CA"/>
  <path fill-rule="evenodd" clip-rule="evenodd" d="M56.271 70C55.0465 70 54.0591 69.6671 53.3121 69.0029C52.5651 68.3598 52.1899 67.5186 52.1899 66.4792C52.1899 65.7111 52.367 65.0144 52.7194 64.3924C53.0718 63.7688 53.5703 63.1874 54.215 62.6483C54.8792 62.1075 55.6474 61.5895 56.5211 61.0909C57.4142 60.5923 58.3903 60.0938 59.4491 59.5952C59.8015 59.4296 60.1441 59.2623 60.4771 59.0967C60.6435 59.0138 60.8096 58.9306 60.9756 58.8474C61.1417 58.7642 61.3077 58.6809 61.4742 58.5981C61.8266 58.4325 62.1692 58.2766 62.5022 58.1304L63.561 54.8273C62.8545 55.6993 62.1595 56.3846 61.4742 56.8832C60.7889 57.3818 60.1344 57.7342 59.5124 57.942C58.8888 58.1499 58.3188 58.2538 57.7991 58.2538C56.906 58.2538 56.1378 58.0573 55.4931 57.6611C54.8695 57.2453 54.3823 56.6542 54.0283 55.8861C53.8632 55.5263 53.7366 55.137 53.6487 54.7179C53.1434 55.3824 52.5937 55.9579 52.0016 56.4464C51.2951 57.0277 50.5368 57.4743 49.728 57.7861C48.9177 58.0979 48.0976 58.2538 47.2677 58.2538V58.2555C47.2486 58.2555 47.2299 58.2549 47.2116 58.2538C47.1836 58.2549 47.1553 58.2555 47.1265 58.2555C46.524 58.2555 46.0043 58.1629 45.5691 57.9745C45.1534 57.8089 44.8221 57.5701 44.572 57.2583C44.3219 56.9465 44.1465 56.5941 44.0426 56.1995C43.9386 55.7838 43.8867 55.3372 43.8867 54.8597L43.9484 54.3303C43.4709 54.9539 42.9626 55.5045 42.4219 55.9819C41.8827 56.4593 41.3208 56.8653 40.7394 57.1966C40.1792 57.5295 39.6075 57.778 39.0261 57.9437C38.4664 58.1302 37.9049 58.2244 37.3452 58.2246C36.2238 58.2243 35.3329 57.9759 34.6674 57.4776C34.0032 56.979 33.5972 56.2726 33.4527 55.3599C33.3276 54.4245 33.4624 53.3348 33.857 52.0892L36.941 42.6816C37.0871 42.2659 37.2528 41.9963 37.4395 41.8712C37.6474 41.7462 37.9478 41.6845 38.3424 41.6845C38.9855 41.6845 39.3915 41.7884 39.5572 41.9963C39.7439 42.183 39.765 42.4851 39.6189 42.8992L36.535 52.276C36.2865 53.0653 36.1712 53.7197 36.1923 54.2394C36.2134 54.7591 36.3904 55.1537 36.7217 55.4233C37.0757 55.6733 37.6052 55.7968 38.31 55.7968C38.8702 55.7968 39.4516 55.6409 40.0541 55.3291C40.6777 55.0173 41.2997 54.5707 41.9233 53.9893C42.5469 53.4079 43.1494 52.7226 43.7308 51.9333C44.3333 51.123 44.8724 50.2298 45.3499 49.2538L47.5 42.68C47.6462 42.2642 47.8118 41.9947 47.9986 41.8696C48.2064 41.7446 48.5069 41.6828 48.9015 41.6828C49.5446 41.6828 49.9506 41.7868 50.1162 41.9947C50.303 42.1814 50.3241 42.4835 50.1779 42.8976L46.8131 53.2715C46.4802 54.2686 46.4087 54.9637 46.5955 55.3583C46.7822 55.7318 47.2077 55.9186 47.8735 55.9186C47.8882 55.9186 47.9027 55.9189 47.917 55.9195C47.9385 55.9189 47.9603 55.9186 47.9822 55.9186C48.5214 55.9186 49.0719 55.8049 49.6338 55.5759C50.173 55.3469 50.7138 55.0156 51.2529 54.5788C51.7937 54.1225 52.2923 53.5817 52.7486 52.9581C53.0619 52.5299 53.3514 52.0681 53.6162 51.5721C53.6776 51.1344 53.7631 50.6827 53.8724 50.2168C54.142 49.158 54.5366 48.1186 55.0563 47.102C55.597 46.0838 56.2612 45.1598 57.0505 44.3299C57.8608 43.479 58.806 42.8034 59.8859 42.3048C60.9659 41.8063 62.1903 41.5578 63.5626 41.5578C64.0401 41.5578 64.498 41.6098 64.9332 41.7137C65.3896 41.7965 65.8264 41.9216 66.2421 42.0872C66.679 42.2529 67.0931 42.4607 67.4877 42.7108L67.5186 42.5549C67.6647 42.1814 67.8207 41.9427 67.9863 41.8387C68.173 41.7348 68.4751 41.6828 68.8892 41.6828C69.5323 41.6828 69.9383 41.7868 70.104 41.9946C70.2907 42.1814 70.3118 42.4835 70.1657 42.8976L65.5559 57.0789C65.8793 56.946 66.198 56.8083 66.5118 56.6656C67.4261 56.2287 68.2868 55.7627 69.0972 55.2641C69.8864 54.7444 70.6026 54.1842 71.2473 53.5817C71.8904 52.9581 72.4409 52.3036 72.8989 51.6183C73.1286 51.2785 73.332 50.9266 73.5088 50.5629C73.533 50.4489 73.5587 50.3341 73.5859 50.2184C73.8554 49.1596 74.2501 48.1202 74.7697 47.1036C75.3089 46.0854 75.9747 45.1614 76.764 44.3315C77.5743 43.4806 78.5195 42.805 79.5994 42.3064C80.6794 41.8079 81.9055 41.5594 83.2761 41.5594C84.1693 41.5594 85.0414 41.7364 85.8923 42.0888C86.3484 42.2673 86.7807 42.4723 87.1895 42.7042L87.198 42.6783C87.3441 42.2626 87.5098 41.993 87.6965 41.868C87.9044 41.7429 88.2048 41.6812 88.5995 41.6812C89.2426 41.6812 89.6485 41.7851 89.8142 41.993C90.0009 42.1798 90.0221 42.4818 89.8759 42.8959L86.4802 53.2699C86.1473 54.267 86.0758 54.962 86.2626 55.3567C86.4493 55.7302 86.8748 55.9169 87.539 55.9169C87.547 55.9169 87.555 55.917 87.5628 55.9172C87.5716 55.9174 87.5802 55.9178 87.5888 55.9182C88.1942 55.9103 88.8088 55.7757 89.4325 55.5142C90.0561 55.2446 90.6894 54.8289 91.3325 54.2686C91.9756 53.6872 92.6414 52.9711 93.3268 52.1185C93.9026 51.4248 94.485 50.6264 95.0746 49.7252L97.3478 42.68C97.4923 42.2642 97.6596 41.9946 97.8463 41.8696C98.0542 41.7445 98.3546 41.6828 98.7493 41.6828C99.3923 41.6828 99.7983 41.7868 99.964 41.9946C100.151 42.1814 100.172 42.4835 100.026 42.8976L99.2462 45.327C99.7447 44.7245 100.253 44.1951 100.773 43.7388C101.313 43.2613 101.843 42.8667 102.361 42.5549C102.902 42.222 103.431 41.9735 103.949 41.8079C104.469 41.6422 104.977 41.5594 105.476 41.5594C105.974 41.5594 106.463 41.6536 106.877 41.8404C107.293 42.006 107.624 42.2139 107.874 42.464C108.103 42.6507 108.227 42.8586 108.248 43.0876C108.269 43.3165 108.165 43.617 107.936 43.9905C107.707 44.3429 107.48 44.5621 107.251 44.645C107.043 44.7278 106.825 44.6969 106.596 44.5508C106.244 44.3429 105.932 44.2081 105.661 44.1464C105.412 44.0636 105.141 44.0214 104.85 44.0214C104.269 44.0214 103.657 44.1773 103.012 44.4891C102.389 44.8009 101.745 45.2474 101.081 45.8288C100.438 46.3891 99.8146 47.0647 99.2121 47.8539C98.6096 48.6432 98.0591 49.5266 97.5605 50.5026L95.3178 57.3882C95.235 57.6578 95.0791 57.8559 94.8501 57.9794C94.6422 58.1255 94.2996 58.197 93.8221 58.197L93.827 58.1937C93.4941 58.1937 93.1839 58.1207 92.8916 57.9761C92.6009 57.83 92.5278 57.5604 92.674 57.1658L93.4621 54.723C92.9777 55.2827 92.4859 55.7748 91.987 56.1995C91.1766 56.8848 90.3468 57.3931 89.4942 57.726C88.6229 58.0798 87.7305 58.2552 86.817 58.2555L86.8111 58.2554C86.0279 58.2539 85.3893 58.1191 84.8936 57.8511C84.395 57.5815 84.0215 57.208 83.7714 56.7289C83.5424 56.2304 83.4287 55.6701 83.4287 55.0465C83.4325 54.9331 83.4394 54.8184 83.4496 54.7024C83.2999 54.8889 83.1489 55.0658 82.9968 55.2332C81.9785 56.3554 80.9928 57.1446 80.0379 57.601C79.1041 58.0378 78.2629 58.2554 77.5143 58.2554H77.511C76.6178 58.2554 75.8497 58.0589 75.2066 57.6627C74.5635 57.247 74.0649 56.6558 73.7109 55.8877C73.4885 55.3746 73.3408 54.8014 73.2672 54.1676C72.951 54.5529 72.61 54.9184 72.2444 55.2641C71.4974 55.9705 70.687 56.6136 69.815 57.195C68.9218 57.7553 67.988 58.2652 67.012 58.7215C66.2489 59.0708 65.48 59.3963 64.7047 59.6972L64.0595 61.682C63.5821 63.1988 63.0722 64.485 62.533 65.5455C61.9922 66.6043 61.4108 67.4552 60.7889 68.1C60.1653 68.7642 59.4799 69.2416 58.7329 69.5323C57.9859 69.8441 57.1642 70 56.2726 70H56.271ZM56.677 67.5705C57.3006 67.5705 57.882 67.3627 58.4211 66.9469C58.9814 66.5523 59.5011 65.9092 59.9785 65.016C60.4771 64.144 60.9545 63.0121 61.4108 61.6203L61.5667 61.0276C61.38 61.1315 61.1932 61.2241 61.0065 61.3085C60.8197 61.4124 60.633 61.505 60.4462 61.5895C60.2594 61.6934 60.0613 61.7973 59.8551 61.9013C59.1081 62.2537 58.4325 62.5963 57.83 62.9292C57.2275 63.2816 56.7078 63.6146 56.2726 63.9264C55.8569 64.2593 55.5353 64.6019 55.3063 64.9543C55.0774 65.3067 54.9637 65.6916 54.9637 66.1073C54.9637 66.4191 55.0254 66.679 55.1504 66.8852C55.295 67.1142 55.5028 67.2799 55.774 67.3838C56.0436 67.5088 56.3457 67.5705 56.677 67.5705ZM58.7021 55.7627C59.3874 55.7627 60.0938 55.5337 60.8197 55.0773C61.5667 54.5999 62.304 53.9243 63.0316 53.0523C63.7786 52.1591 64.4964 51.0889 65.1817 49.8433L66.8333 44.7651C66.2519 44.4745 65.6916 44.2763 65.1508 44.174C64.6312 44.0701 64.1131 44.0181 63.5935 44.0181C62.5541 44.0181 61.6301 44.2146 60.8213 44.6092C60.0321 45.0039 59.3468 45.5333 58.7654 46.1975C58.2051 46.8617 57.7374 47.5892 57.3639 48.3785C57.0115 49.1677 56.7517 49.957 56.5844 50.7462C56.4188 51.5144 56.3359 52.211 56.3359 52.833C56.3359 53.455 56.4188 54.0169 56.5844 54.4521C56.7712 54.8679 57.0407 55.1894 57.3948 55.4184C57.7472 55.6474 58.184 55.761 58.7037 55.761L58.7021 55.7627ZM85.3954 44.3332C85.7434 44.4356 86.1139 44.5833 86.5071 44.7764L84.7887 49.995C84.2078 51.0252 83.6005 51.9403 82.9659 52.7421C82.1962 53.7181 81.428 54.4651 80.6599 54.9848C79.8917 55.5044 79.1447 55.7643 78.4172 55.7643C77.8975 55.7643 77.4607 55.6506 77.1083 55.4216C76.7542 55.1926 76.4846 54.8711 76.2979 54.4554C76.1111 54.0201 76.017 53.4582 76.017 52.8363C76.017 52.2143 76.1014 51.5176 76.267 50.7495C76.4538 49.9602 76.725 49.171 77.0774 48.3817C77.4509 47.5925 77.9186 46.8649 78.4789 46.2007C79.0603 45.5365 79.7456 45.0071 80.5348 44.6125C81.3452 44.2179 82.2806 44.0214 83.3394 44.0214C84.0247 44.0214 84.7101 44.1253 85.3954 44.3332Z" fill="#4AA1CA"/>
  <path d="M37.3452 58.2246H37.3437H37.347H37.3452Z" fill="#4AA1CA"/>
</svg>