<svg width="28" height="28" viewBox="0 0 28 28" fill="none" xmlns="http://www.w3.org/2000/svg">
<path d="M22.414 3.0625H17.3653C15.9863 3.0625 14.7753 3.73625 14 4.7775C13.6133 4.2473 13.1071 3.81571 12.5224 3.51774C11.9377 3.21977 11.291 3.06381 10.6348 3.0625H5.586C5.25448 3.06204 4.92613 3.127 4.61976 3.25365C4.31338 3.38031 4.03501 3.56617 3.80059 3.80059C3.56617 4.03501 3.38031 4.31338 3.25365 4.61976C3.127 4.92613 3.06204 5.25448 3.0625 5.586V19.0488C3.06204 19.3803 3.127 19.7086 3.25365 20.015C3.38031 20.3214 3.56617 20.5997 3.80059 20.8342C4.03501 21.0686 4.31338 21.2544 4.61976 21.3811C4.92613 21.5078 5.25448 21.5727 5.586 21.5723H10.6348C10.9663 21.5718 11.2946 21.6367 11.601 21.7634C11.9074 21.8901 12.1857 22.0759 12.4202 22.3103C12.6546 22.5448 12.8404 22.8231 12.9671 23.1295C13.0938 23.4359 13.1587 23.7642 13.1583 24.0958C13.1583 24.5683 13.5293 24.9375 14 24.9375C14.4725 24.9375 14.84 24.5665 14.84 24.0975C14.8393 23.7657 14.9042 23.437 15.0308 23.1303C15.1575 22.8236 15.3435 22.545 15.5781 22.3103C15.8127 22.0757 16.0914 21.8897 16.3981 21.7631C16.7048 21.6364 17.0334 21.5716 17.3653 21.5723H22.414C22.7455 21.5727 23.0739 21.5078 23.3802 21.3811C23.6866 21.2544 23.965 21.0686 24.1994 20.8342C24.4338 20.5997 24.6197 20.3214 24.7463 20.015C24.873 19.7086 24.938 19.3803 24.9375 19.0488V5.586C24.938 5.25448 24.873 4.92613 24.7463 4.61976C24.6197 4.31338 24.4338 4.03501 24.1994 3.80059C23.965 3.56617 23.6866 3.38031 23.3802 3.25365C23.0739 3.127 22.7455 3.06204 22.414 3.0625ZM13.1583 20.7305C12.4286 20.1877 11.5441 19.8932 10.6348 19.8905H5.586C5.47528 19.8914 5.36549 19.8703 5.26304 19.8283C5.16059 19.7863 5.06753 19.7243 4.98932 19.6459C4.91111 19.5676 4.84931 19.4744 4.80753 19.3718C4.76575 19.2693 4.74484 19.1595 4.746 19.0488V5.586C4.746 5.11525 5.11525 4.746 5.586 4.746H10.6348C10.9663 4.74554 11.2946 4.8105 11.601 4.93715C11.9074 5.06381 12.1857 5.24967 12.4202 5.48409C12.6546 5.71851 12.8404 5.99688 12.9671 6.30326C13.0938 6.60963 13.1587 6.93798 13.1583 7.2695V20.7305ZM23.2557 19.0488C23.2557 19.5195 22.8848 19.8888 22.414 19.8888H17.3653C16.4238 19.8888 15.5488 20.209 14.8418 20.7305V7.2695C14.8413 6.93798 14.9062 6.60963 15.0329 6.30326C15.1596 5.99688 15.3454 5.71851 15.5798 5.48409C15.8143 5.24967 16.0926 5.06381 16.399 4.93715C16.7054 4.8105 17.0337 4.74554 17.3653 4.746H22.414C22.8848 4.746 23.254 5.11525 23.254 5.586V19.0488H23.2557Z" fill="currentColor"/>
</svg>
