<svg xmlns="http://www.w3.org/2000/svg" width="128" height="128" viewBox="0 0 128 128" fill="none">
  <path d="M90.6001 16.8001H26.2501C23.82 16.8001 21.8501 18.7701 21.8501 21.2001V80.6001M90.6001 16.8001V26.3226C90.6001 28.6842 92.4645 30.6247 94.8242 30.7191L104.35 31.1001M90.6001 16.8001L104.35 31.1001M104.35 31.1001V80.6001" stroke="black"/>
  <path d="M90.6 26.3226V16.8001L104.35 31.1001L94.8241 30.7191C92.4643 30.6247 90.6 28.6842 90.6 26.3226Z" fill="#4AA1CA"/>
  <path d="M64.2 16.8001H90.6M90.6 16.8001V26.3226C90.6 28.6842 92.4643 30.6247 94.8241 30.7191L104.35 31.1001M90.6 16.8001L104.35 31.1001M104.35 31.1001V56.9501" stroke="black"/>
  <path d="M21.8501 89.4001V111.4C21.8501 113.83 23.82 115.8 26.2501 115.8H99.9501C102.38 115.8 104.35 113.83 104.35 111.4V89.4001" stroke="black"/>
  <path d="M57.05 58.701C60.2045 55.5465 65.3189 55.5465 68.4733 58.701" stroke="black" stroke-linecap="round"/>
  <path d="M102.15 20.1001L112.05 14.6001" stroke="#4AA1CA" stroke-linecap="round"/>
  <path d="M100.564 16.1573L105.45 10.2" stroke="#4AA1CA" stroke-linecap="round"/>
  <path d="M104.35 23.007L113.15 22.2215" stroke="#4AA1CA" stroke-linecap="round"/>
  <circle cx="46.6001" cy="42.6501" r="2.75" fill="black"/>
  <circle cx="79.6001" cy="42.6501" r="2.75" fill="black"/>
  <path d="M33.2293 80.4673C33.2293 78.1106 31.3188 76.2001 28.9621 76.2001C26.6053 76.2001 24.6948 78.1106 24.6948 80.4673" stroke="black"/>
  <path d="M36.0743 80.4673C36.0743 81.2529 35.4375 81.8898 34.6519 81.8898C33.8663 81.8898 33.2295 81.2529 33.2295 80.4673" stroke="black"/>
  <path d="M24.6949 80.4673C24.6949 81.2529 24.0581 81.8898 23.2725 81.8898C22.4869 81.8898 21.8501 81.2529 21.8501 80.4673" stroke="black"/>
  <path d="M44.6087 80.4673C44.6087 78.1106 42.6982 76.2001 40.3415 76.2001C37.9847 76.2001 36.0742 78.1106 36.0742 80.4673" stroke="black"/>
  <path d="M55.9881 80.4673C55.9881 78.1106 54.0776 76.2001 51.7209 76.2001C49.3641 76.2001 47.4536 78.1106 47.4536 80.4673" stroke="black"/>
  <path d="M67.3672 80.4673C67.3672 78.1106 65.4567 76.2001 63.1 76.2001C60.7433 76.2001 58.8328 78.1106 58.8328 80.4673" stroke="black"/>
  <path d="M78.7466 80.4673C78.7466 78.1106 76.8361 76.2001 74.4794 76.2001C72.1227 76.2001 70.2122 78.1106 70.2122 80.4673" stroke="black"/>
  <path d="M90.126 80.4673C90.126 78.1106 88.2155 76.2001 85.8588 76.2001C83.5021 76.2001 81.5916 78.1106 81.5916 80.4673" stroke="black"/>
  <path d="M101.505 80.4673C101.505 78.1106 99.5947 76.2001 97.2379 76.2001C94.8812 76.2001 92.9707 78.1106 92.9707 80.4673" stroke="black"/>
  <path d="M47.4535 80.4673C47.4535 81.2529 46.8166 81.8898 46.0311 81.8898C45.2455 81.8898 44.6086 81.2529 44.6086 80.4673" stroke="black"/>
  <path d="M58.8329 80.4673C58.8329 81.2529 58.196 81.8898 57.4105 81.8898C56.6249 81.8898 55.988 81.2529 55.988 80.4673" stroke="black"/>
  <path d="M70.2123 80.4673C70.2123 81.2529 69.5754 81.8898 68.7898 81.8898C68.0043 81.8898 67.3674 81.2529 67.3674 80.4673" stroke="black"/>
  <path d="M81.5914 80.4673C81.5914 81.2529 80.9546 81.8898 80.169 81.8898C79.3834 81.8898 78.7466 81.2529 78.7466 80.4673" stroke="black"/>
  <path d="M92.9708 80.4673C92.9708 81.2529 92.334 81.8898 91.5484 81.8898C90.7628 81.8898 90.126 81.2529 90.126 80.4673" stroke="black"/>
  <path d="M104.35 80.4673C104.35 81.2529 103.713 81.8898 102.928 81.8898C102.142 81.8898 101.505 81.2529 101.505 80.4673" stroke="black"/>
  <path d="M33.2293 89.2674C33.2293 86.9106 31.3188 85.0001 28.9621 85.0001C26.6053 85.0001 24.6948 86.9106 24.6948 89.2674" stroke="black"/>
  <path d="M36.0743 89.2673C36.0743 90.0529 35.4375 90.6897 34.6519 90.6897C33.8663 90.6897 33.2295 90.0529 33.2295 89.2673" stroke="black"/>
  <path d="M24.6949 89.2673C24.6949 90.0529 24.0581 90.6897 23.2725 90.6897C22.4869 90.6897 21.8501 90.0529 21.8501 89.2673" stroke="black"/>
  <path d="M44.6087 89.2674C44.6087 86.9106 42.6982 85.0001 40.3415 85.0001C37.9847 85.0001 36.0742 86.9106 36.0742 89.2674" stroke="black"/>
  <path d="M55.9881 89.2674C55.9881 86.9106 54.0776 85.0001 51.7209 85.0001C49.3641 85.0001 47.4536 86.9106 47.4536 89.2674" stroke="black"/>
  <path d="M67.3672 89.2674C67.3672 86.9106 65.4567 85.0001 63.1 85.0001C60.7433 85.0001 58.8328 86.9106 58.8328 89.2674" stroke="black"/>
  <path d="M78.7466 89.2674C78.7466 86.9106 76.8361 85.0001 74.4794 85.0001C72.1227 85.0001 70.2122 86.9106 70.2122 89.2674" stroke="black"/>
  <path d="M90.126 89.2674C90.126 86.9106 88.2155 85.0001 85.8588 85.0001C83.5021 85.0001 81.5916 86.9106 81.5916 89.2674" stroke="black"/>
  <path d="M101.505 89.2674C101.505 86.9106 99.5947 85.0001 97.2379 85.0001C94.8812 85.0001 92.9707 86.9106 92.9707 89.2674" stroke="black"/>
  <path d="M47.4535 89.2673C47.4535 90.0529 46.8166 90.6897 46.0311 90.6897C45.2455 90.6897 44.6086 90.0529 44.6086 89.2673" stroke="black"/>
  <path d="M58.8329 89.2673C58.8329 90.0529 58.196 90.6897 57.4105 90.6897C56.6249 90.6897 55.988 90.0529 55.988 89.2673" stroke="black"/>
  <path d="M70.2123 89.2673C70.2123 90.0529 69.5754 90.6897 68.7898 90.6897C68.0043 90.6897 67.3674 90.0529 67.3674 89.2673" stroke="black"/>
  <path d="M81.5914 89.2673C81.5914 90.0529 80.9546 90.6897 80.169 90.6897C79.3834 90.6897 78.7466 90.0529 78.7466 89.2673" stroke="black"/>
  <path d="M92.9708 89.2673C92.9708 90.0529 92.334 90.6897 91.5484 90.6897C90.7628 90.6897 90.126 90.0529 90.126 89.2673" stroke="black"/>
  <path d="M104.35 89.2673C104.35 90.0529 103.713 90.6897 102.928 90.6897C102.142 90.6897 101.505 90.0529 101.505 89.2673" stroke="black"/>
</svg>