<svg width="128" height="128" viewBox="0 0 128 128" fill="none" xmlns="http://www.w3.org/2000/svg">
  <path d="M25 38C25 34.6863 27.6863 32 31 32H113C116.314 32 119 34.6863 119 38V108.126C119 111.39 116.391 114.056 113.128 114.125L31.1276 115.87C27.7647 115.941 25 113.235 25 109.871V38Z" fill="white" stroke="black"/>
  <path d="M25 39C25 36.7909 26.7909 35 29 35H113C115.209 35 117 36.7909 117 39V111.043C117 113.235 115.236 115.019 113.043 115.043L29.0435 115.956C26.8175 115.98 25 114.182 25 111.956V39Z" fill="white" stroke="black"/>
  <circle cx="47.5" cy="50.5" r="12.5" fill="#4AA1CA" stroke="black"/>
  <circle cx="87" cy="37" r="12" fill="#4AA1CA" stroke="black"/>
  <path d="M10.5644 58.2633C9.75957 54.5266 12.6075 51 16.4299 51H99.6181C102.462 51 104.915 52.9959 105.493 55.7799L116.5 108.78C117.274 112.505 114.43 116 110.626 116H27.8453C25.0184 116 22.575 114.027 21.9798 111.263L10.5644 58.2633Z" fill="white" stroke="black"/>
  <path d="M11.0108 58.8209C10.4897 56.3355 12.3863 54 14.9257 54H99.7517C101.644 54 103.278 55.3267 103.667 57.1791L114.989 111.179C115.51 113.664 113.614 116 111.074 116H26.2483C24.3555 116 22.7218 114.673 22.3334 112.821L11.0108 58.8209Z" fill="white" stroke="black"/>
  <path d="M51.5875 91.847C49.9226 85.8966 54.3958 80 60.5748 80C64.7604 80 68.4341 82.7869 69.562 86.8177L77.7273 116H58.3456L51.5875 91.847Z" fill="white" stroke="black"/>
  <circle cx="60.5455" cy="89" r="4.09091" fill="black"/>
  <circle cx="58" cy="17" r="11" fill="#4AA1CA" stroke="black"/>
</svg>