<svg xmlns="http://www.w3.org/2000/svg" width="24" height="24" viewBox="0 0 24 24" fill="none">
  <circle cx="12" cy="12" r="3" stroke="currentColor" stroke-width="2"/>
  <path d="M5.05816 5.56368C4.08048 6.61745 3.37055 7.86799 2.95718 9.20777L4.79366 10.2681C6.127 11.0379 6.127 12.9624 4.79366 13.7322L2.95538 14.7935C3.16066 15.456 3.44244 16.1062 3.80386 16.7322C4.16528 17.3581 4.5874 17.9272 5.05851 18.4363L6.89683 17.3749C8.23016 16.6051 9.89683 17.5673 9.89683 19.1069V21.2276C11.2638 21.5395 12.7018 21.55 14.1032 21.2301L14.1032 19.107C14.1032 17.5674 15.7699 16.6052 17.1032 17.375L18.9419 18.4365C19.9196 17.3828 20.6295 16.1322 21.0429 14.7925L19.2063 13.7321C17.873 12.9623 17.873 11.0378 19.2063 10.268L21.0446 9.20666C20.8394 8.54415 20.5576 7.89404 20.1962 7.26806C19.8348 6.64205 19.4126 6.07296 18.9415 5.56392L17.1032 6.62526C15.7699 7.39506 14.1032 6.43281 14.1032 4.89321V2.77261C12.7362 2.46071 11.2983 2.45026 9.89683 2.77007L9.89683 4.89319C9.89683 6.43279 8.23016 7.39504 6.89683 6.62524L5.05816 5.56368Z" stroke="currentColor" stroke-width="2" stroke-linejoin="round"/>
</svg>