<svg width="20" height="20" viewBox="0 0 20 20" fill="none" xmlns="http://www.w3.org/2000/svg">
<path
fill-rule="evenodd"
clip-rule="evenodd"
d="M3.0893 9.31428C2.7565 9.3601 2.5 9.6496 2.5 9.9999C2.5 10.382 2.80526 10.6918 3.18182 10.6918H15.1665L10.8371 15.0678L10.7709 15.1453C10.5723 15.4157 10.5935 15.8002 10.8351 16.0463C11.1008 16.3171 11.5325 16.318 11.7993 16.0483L17.2865 10.5028C17.4101 10.3842 17.49 10.2192 17.4991 10.0353C17.5087 9.84605 17.4421 9.65353 17.2993 9.50922L11.7993 3.95161L11.7227 3.88478C11.4553 3.68438 11.0766 3.70754 10.8351 3.95372C10.5694 4.22451 10.5703 4.66262 10.8371 4.93226L15.1675 9.30797H3.18182L3.0893 9.31428Z"
fill="#fff"
/>
</svg>